<?xml version="1.0" encoding="utf-8"?>
<!-- Generator: Adobe Illustrator 26.5.0, SVG Export Plug-In . SVG Version: 6.00 Build 0)  -->
<svg version="1.1" xmlns="http://www.w3.org/2000/svg" xmlns:xlink="http://www.w3.org/1999/xlink" x="0px" y="0px"
	 viewBox="0 0 65 50" style="enable-background:new 0 0 65 50;" xml:space="preserve">
<style type="text/css">
	.st0{fill:none;stroke:#8336F8;stroke-width:20;stroke-linecap:round;stroke-miterlimit:10;}
	.st1{fill:none;stroke:#FF4D05;stroke-width:20;stroke-linecap:round;stroke-miterlimit:10;}
	.st2{fill:#7226BF;}
	.st3{fill:#9833FF;}
	.st4{fill:#FFFFFF;}
</style>
<g id="DESIGNED_BY_FREEPIK">
</g>
<g id="OBJECTS">
	<g id="Nuevo_símbolo">
	</g>
	<g id="Nuevo_símbolo_1">
	</g>
	<g id="Nuevo_símbolo_2">
	</g>
	<g id="Nuevo_símbolo_3">
	</g>
	<g>
		<path class="st0" d="M-345.23-1014.49h788.11c55.23,0,100,44.77,100,100v260.6c0,55.23-44.77,100-100,100h-37.55"/>
		<path class="st1" d="M310.72-553.9h-788.11c-55.23,0-100-44.77-100-100v-260.6c0-55.23,44.77-100,100-100h37.55"/>
	</g>
	<g>
		<path class="st2" d="M52.49,34.87L5.94,47.36C3.76,47.94,2,46.65,2,44.47v-8.09c0-2.18,1.76-4.42,3.94-5L52.49,18.9
			c2.17-0.58,3.94,0.71,3.94,2.89v8.09C56.43,32.05,54.67,34.29,52.49,34.87z"/>
		<path class="st3" d="M59.06,18.61L12.51,31.1c-2.18,0.58-3.94-0.71-3.94-2.89v-8.09c0-2.18,1.76-4.42,3.94-5L59.06,2.64
			C61.24,2.06,63,3.35,63,5.53v8.09C63,15.79,61.24,18.03,59.06,18.61z"/>
		<g>
			<path class="st4" d="M38.02,12.78c-0.56-0.17-1.19-0.16-1.89,0.02c-0.69,0.19-1.32,0.52-1.88,0.99
				c-0.56,0.47-1.01,1.04-1.33,1.71c-0.33,0.67-0.49,1.36-0.49,2.09c0,0.73,0.16,1.34,0.49,1.84c0.33,0.49,0.77,0.83,1.33,1
				c0.56,0.17,1.19,0.16,1.88-0.02c0.69-0.19,1.32-0.52,1.89-0.99c0.56-0.47,1.01-1.04,1.33-1.71c0.33-0.67,0.49-1.37,0.49-2.1
				c0-0.73-0.16-1.34-0.49-1.83C39.03,13.28,38.59,12.95,38.02,12.78z M38.05,17.37c-0.19,0.42-0.44,0.77-0.77,1.05
				c-0.33,0.28-0.71,0.49-1.14,0.6c-0.43,0.12-0.82,0.12-1.14,0.01c-0.33-0.11-0.59-0.32-0.77-0.64c-0.19-0.32-0.28-0.72-0.28-1.21
				c0-0.49,0.09-0.94,0.28-1.36c0.19-0.42,0.44-0.77,0.77-1.05c0.33-0.28,0.71-0.49,1.14-0.6c0.43-0.12,0.82-0.12,1.14-0.01
				c0.33,0.11,0.59,0.32,0.77,0.64c0.19,0.32,0.28,0.72,0.28,1.21C38.33,16.5,38.24,16.95,38.05,17.37z"/>
			<path class="st4" d="M27.1,16.92c0.31-0.28,0.67-0.47,1.06-0.58c0.48-0.13,0.88-0.12,1.22,0.02s0.59,0.39,0.75,0.74l1.55-0.42
				c-0.2-0.77-0.6-1.31-1.21-1.62c-0.61-0.31-1.38-0.35-2.3-0.1c-0.71,0.19-1.34,0.52-1.88,0.98c-0.54,0.46-0.96,1.02-1.26,1.68
				c-0.3,0.65-0.45,1.35-0.45,2.09c0,0.73,0.15,1.34,0.45,1.84c0.3,0.5,0.72,0.83,1.26,1c0.36,0.12,0.76,0.15,1.19,0.1v1.08
				l1.44-0.39v-1.09c0.6-0.26,1.11-0.61,1.55-1.07c0.61-0.64,1.01-1.4,1.21-2.27l-1.55,0.42c-0.16,0.44-0.41,0.83-0.75,1.15
				c-0.34,0.32-0.75,0.55-1.22,0.68c-0.39,0.11-0.75,0.1-1.06-0.01c-0.32-0.11-0.56-0.33-0.74-0.64c-0.18-0.32-0.26-0.72-0.26-1.2
				c0-0.49,0.09-0.94,0.26-1.35C26.54,17.55,26.78,17.2,27.1,16.92z"/>
			<polygon class="st4" points="46.97,10 45.19,10.48 42.44,14.55 42.44,11.22 40.96,11.61 40.96,19.04 42.44,18.64 42.44,15.24 
				45.18,17.91 46.97,17.42 43.83,14.49 			"/>
		</g>
		<path class="st4" d="M13.22,34.17l-2.51,5.5v2.6l-1.49,0.4v-2.6L6.7,35.92l1.7-0.46l1.58,2.83l1.58-3.67L13.22,34.17z
			 M17.66,38.91l-2.97,0.8l-0.53,1.63l-1.56,0.42l2.73-8.07l1.69-0.45l2.72,6.61l-1.56,0.42L17.66,38.91z M17.26,37.89l-1.09-2.84
			l-1.09,3.43L17.26,37.89z M23.37,35.09l3.14,2.93l-1.8,0.48l-2.74-2.66v3.4l-1.48,0.4v-7.42l1.48-0.4v3.33l2.75-4.07l1.79-0.48
			L23.37,35.09z M28.75,30v7.42l-1.48,0.4V30.4L28.75,30z M36.47,35.35l-1.48,0.4l-3.32-4.16v5.05l-1.48,0.4v-7.42l1.48-0.4
			l3.32,4.2v-5.09l1.48-0.4V35.35z M43.98,31.56c-0.31,0.64-0.75,1.2-1.34,1.67c-0.58,0.47-1.28,0.81-2.08,1.03l-2.64,0.71v-7.42
			l2.64-0.71c0.8-0.22,1.5-0.25,2.08-0.1c0.58,0.15,1.03,0.46,1.34,0.93c0.31,0.47,0.46,1.08,0.46,1.83
			C44.44,30.23,44.29,30.92,43.98,31.56z M42.28,31.84c0.44-0.54,0.66-1.19,0.66-1.94c0-0.76-0.22-1.3-0.66-1.6
			c-0.44-0.3-1.06-0.35-1.85-0.13l-1.03,0.28v4.8l1.03-0.28C41.23,32.75,41.85,32.37,42.28,31.84z M49.65,30.32l-2.97,0.8
			l-0.53,1.63l-1.56,0.42l2.73-8.07l1.69-0.45l2.72,6.61l-1.56,0.42L49.65,30.32z M49.26,29.3l-1.09-2.84l-1.09,3.43L49.26,29.3z"/>
	</g>
</g>
</svg>
